#!OML:ASF F:\twosubjects\two\Thursday\Session 1\Rory.ASF
:FULLY-SPECIFIED
:DEGREES
212
root 4.94647 18.4073 -6.83028 6.09558 49.7746 -4.68901
lowerback 2.98055 -1.2425 -5.08973
upperback 4.03594 -1.4087 -7.36432
thorax 2.45539 -0.649963 -4.78028
lowerneck 1.55208 -9.93216 -17.5703
upperneck 28.3812 -10.6298 -4.24669
head 9.7542 -6.92985 0.497081
rclavicle -3.18055e-015 1.11319e-013
rhumerus -15.258 -10.4439 -56.4123
rradius 118.558
rwrist 22.4427
rhand -10.3777 4.43208
rfingers 7.12502
rthumb 15.6199 -24.9573
lclavicle -3.18055e-015 1.11319e-013
lhumerus -38.7719 18.2943 63.3379
lradius 33.3213
lwrist -16.0171
lhand -12.9637 30.6502
lfingers 7.12502
lthumb 13.1282 60.2169
rfemur -13.2393 0.23188 22.4776
rtibia 19.0795
rfoot -17.7026 -23.5609
rtoes 8.68566
lfemur -16.9316 -9.35255 -8.70834
ltibia 17.9249
lfoot -17.0288 28.892
ltoes 16.5308
213
root 4.99638 18.4074 -6.85253 6.45835 49.9278 -4.46455
lowerback 2.73994 -1.48759 -5.4491
upperback 4.07174 -1.71964 -7.11961
thorax 2.63273 -0.822242 -4.32551
lowerneck 0.788369 -9.87035 -17.8121
upperneck 29.1038 -10.2413 -4.49624
head 10.152 -6.83287 0.416356
rclavicle -2.94201e-014 0
rhumerus -14.9738 -10.0624 -56.2396
rradius 118.298
rwrist 21.338
rhand -10.4867 3.30948
rfingers 7.12502
rthumb 15.515 -26.088
lclavicle -2.94201e-014 0
lhumerus -39.1812 19.5746 62.9422
lradius 32.6416
lwrist -16.367
lhand -12.1543 29.4389
lfingers 7.12502
lthumb 13.9083 58.9537
rfemur -13.2209 0.300685 22.1435
rtibia 18.8042
rfoot -17.6191 -23.8939
rtoes 8.68558
lfemur -17.1897 -8.8763 -8.9656
ltibia 18.1623
lfoot -17.9585 27.3909
ltoes 20.8218
214
root 5.04605 18.4334 -6.86438 6.7736 49.8948 -4.08552
lowerback 2.65674 -1.42597 -5.92492
upperback 4.05517 -1.63113 -7.10042
thorax 2.68269 -0.790406 -4.0423
lowerneck 1.03674 -9.91666 -17.6428
upperneck 29.3344 -10.3824 -4.38252
head 10.193 -6.8816 0.422925
rclavicle 2.06736e-014 6.36111e-014
rhumerus -15.5827 -10.3381 -56.0047
rradius 118.026
rwrist 20.5224
rhand -11.338 3.14845
rfingers 7.12502
rthumb 14.6949 -26.3108
lclavicle 2.06736e-014 6.36111e-014
lhumerus -39.292 19.6843 62.6142
lradius 31.9185
lwrist -16.2003
lhand -11.4795 28.6814
lfingers 7.12502
lthumb 14.5585 58.1505
rfemur -12.9863 0.891161 21.6989
rtibia 18.5766
rfoot -17.4633 -24.5536
rtoes 8.08002
lfemur -17.041 -8.99654 -9.23066
ltibia 18.3308
lfoot -19.9582 25.9324
ltoes 27.4496
215
root 5.09648 18.452 -6.89181 6.8985 50.1775 -3.81123
lowerback 2.81672 0.152857 -4.98806
upperback 4.31585 0.570567 -8.5211
thorax 2.96011 0.385056 -6.09934
lowerneck 2.64446 -11.5744 -13.149
upperneck 29.5863 -13.3322 -4.31336
head 9.72968 -7.80972 -0.383457
rclavicle -9.70069e-014 -2.54444e-014
rhumerus -20.3307 -15.4515 -55.4566
rradius 118.307
rwrist 20.4532
rhand -11.9495 4.15954
rfingers 7.12502
rthumb 14.1057 -25.3417
lclavicle -9.70069e-014 -2.54444e-014
lhumerus -35.9633 14.0981 63.1151
lradius 30.6869
lwrist -15.7208
lhand -9.58494 27.4487
lfingers 7.12502
lthumb 16.3833 56.7768
rfemur -12.6519 1.13909 21.3416
rtibia 18.3559
rfoot -17.9005 -24.8009
rtoes 10.9157
lfemur -17.0039 -8.35402 -9.63396
ltibia 18.4725
lfoot -18.9715 24.9466
ltoes 27.1824
216
root 5.14603 18.4537 -6.91664 6.86512 50.2674 -3.67772
lowerback 3.10037 0.995525 -4.58347
upperback 4.36743 1.72363 -9.24004
thorax 2.98033 1.00656 -7.122
lowerneck 3.43246 -12.5449 -10.5476
upperneck 29.9294 -14.8874 -4.46078
head 9.49964 -8.30383 -0.88564
rclavicle 3.49861e-014 9.54166e-015
rhumerus -23.3641 -18.1561 -54.9444
rradius 118.138
rwrist 20.4808
rhand -11.8519 5.4388
rfingers 7.12502
rthumb 14.1997 -24.0559
lclavicle 3.49861e-014 9.54166e-015
lhumerus -34.4425 11.4219 63.0127
lradius 29.6301
lwrist -16.5056
lhand -7.88255 25.7703
lfingers 7.12502
lthumb 18.0219 54.9553
rfemur -12.3286 1.12085 21.0796
rtibia 18.1871
rfoot -17.6319 -25.1406
rtoes 8.91026
lfemur -16.9136 -7.22678 -10.025
ltibia 18.5976
lfoot -17.3468 23.9546
ltoes 24.477
217
root 5.20055 18.4472 -6.93959 6.80533 50.3078 -3.71856
lowerback 2.92549 -0.340257 -5.56623
upperback 4.38865 -0.119012 -8.04833
thorax 2.92671 0.00726009 -5.26143
lowerneck 2.28054 -11.2747 -13.7555
upperneck 30.1279 -12.7532 -4.44114
head 10.0241 -7.62729 -0.335623
rclavicle 6.59965e-014 9.54166e-015
rhumerus -20.2252 -14.6538 -55.3285
rradius 116.893
rwrist 20.0975
rhand -11.899 6.13361
rfingers 7.12502
rthumb 14.1543 -23.3642
lclavicle 6.59965e-014 9.54166e-015
lhumerus -36.9622 16.6628 62.284
lradius 29.2471
lwrist -18.2751
lhand -10.3874 27.7796
lfingers 7.12502
lthumb 15.6105 57.1697
rfemur -12.2026 1.10519 20.9031
rtibia 18.1592
rfoot -17.9604 -24.9057
rtoes 11.3637
lfemur -16.9383 -6.06848 -10.3267
ltibia 18.7037
lfoot -16.4435 23.053
ltoes 22.4291
218
root 5.25157 18.4488 -6.9649 6.77071 50.4491 -3.81054
lowerback 2.88726 0.121006 -5.1963
upperback 4.46604 0.523147 -8.23419
thorax 3.0681 0.346651 -5.67413
lowerneck 2.90701 -11.8014 -13.0666
upperneck 30.2538 -13.7197 -4.04065
head 9.96329 -7.97405 -0.355023
rclavicle -7.39479e-014 3.49861e-014
rhumerus -21.8784 -16.0739 -54.7322
rradius 116.56
rwrist 19.8775
rhand -12.4985 5.73813
rfingers 7.12502
rthumb 13.5766 -23.7992
lclavicle -7.39479e-014 3.49861e-014
lhumerus -36.0619 14.847 62.7891
lradius 28.676
lwrist -18.2121
lhand -11.0876 30.328
lfingers 7.12502
lthumb 14.9361 59.7695
rfemur -12.116 1.60621 20.7578
rtibia 18.1362
rfoot -18.1932 -25.5647
rtoes 10.4363
lfemur -17.0791 -4.79892 -10.618
ltibia 18.8512
lfoot -15.376 22.1337
ltoes 19.824
219
root 5.30542 18.4524 -6.99753 6.74169 50.5363 -3.84679
lowerback 2.99385 0.121449 -5.0892
upperback 4.41728 0.497942 -8.07689
thorax 2.95179 0.331677 -5.5646
lowerneck 3.04894 -11.8042 -13.5055
upperneck 30.4933 -13.8096 -3.61862
head 10.1096 -8.02735 -0.16453
rclavicle 9.46215e-014 -7.63333e-014
rhumerus -22.5743 -16.011 -54.2503
rradius 116.145
rwrist 19.3715
rhand -13.5541 5.24358
rfingers 7.12502
rthumb 12.559 -24.3589
lclavicle 9.46215e-014 -7.63333e-014
lhumerus -36.1791 14.4868 63.1288
lradius 28.2878
lwrist -18.0754
lhand -7.79195 29.2102
lfingers 7.12502
lthumb 18.109 58.3872
rfemur -11.9656 2.297 20.5561
rtibia 18.0963
rfoot -18.2019 -26.4272
rtoes 8.54297
lfemur -17.1414 -3.9753 -10.9186
ltibia 19.0382
lfoot -14.6037 21.4165
ltoes 17.8449
220
root 5.36769 18.4531 -7.02926 6.59246 50.5343 -4.07008
lowerback 2.99364 0.0572737 -4.93382
upperback 4.34935 0.394122 -7.89963
thorax 2.87079 0.277191 -5.46041
lowerneck 3.09424 -11.7201 -13.7733
upperneck 30.8118 -13.7481 -3.30847
head 10.2698 -8.00616 -0.0274925
rclavicle 3.26007e-014 -4.77083e-014
rhumerus -22.9477 -15.7484 -53.8102
rradius 115.681
rwrist 18.4807
rhand -14.5973 5.74484
rfingers 7.12502
rthumb 11.5531 -23.9167
lclavicle 3.26007e-014 -4.77083e-014
lhumerus -36.462 15.0635 62.9357
lradius 27.6846
lwrist -18.7102
lhand -6.61167 28.2223
lfingers 7.12502
lthumb 19.2443 57.2901
rfemur -11.8962 2.37214 20.5022
rtibia 18.1544
rfoot -18.2274 -26.3554
rtoes 9.78549
lfemur -17.1345 -3.51871 -11.0713
ltibia 19.1224
lfoot -14.3629 21.0981
ltoes 16.7186
